<?xml version="1.0" standalone="no"?><svg xmlns="http://www.w3.org/2000/svg" viewBox="0 0 1440 320"><path fill="currentColor" fill-opacity="1" d="M0,64L34.3,80C68.6,96,137,128,206,154.7C274.3,181,343,203,411,192C480,181,549,139,617,112C685.7,85,754,75,823,90.7C891.4,107,960,149,1029,181.3C1097.1,213,1166,235,1234,240C1302.9,245,1371,235,1406,229.3L1440,224L1440,320L1405.7,320C1371.4,320,1303,320,1234,320C1165.7,320,1097,320,1029,320C960,320,891,320,823,320C754.3,320,686,320,617,320C548.6,320,480,320,411,320C342.9,320,274,320,206,320C137.1,320,69,320,34,320L0,320Z"></path></svg>